<svg width="24" height="24" viewBox="0 0 24 24" fill="none" xmlns="http://www.w3.org/2000/svg">
<path d="M22 10V14C22 14.55 21.78 15.05 21.39 15.44L17.56 19.27C17.17 19.66 16.67 19.88 16.12 19.88H7.88C7.33 19.88 6.83 19.66 6.44 19.27L2.61 15.44C2.22 15.05 2 14.55 2 14V10C2 9.45 2.22 8.95 2.61 8.56L6.44 4.73C6.83 4.34 7.33 4.12 7.88 4.12H16.12C16.67 4.12 17.17 4.34 17.56 4.73L21.39 8.56C21.78 8.95 22 9.45 22 10Z" stroke="#F6A51E" stroke-width="2" stroke-linecap="round" stroke-linejoin="round"/>
<path d="M12 2C12 2 12 2 12 2C11.45 2 10.95 2.22 10.56 2.61L6.73 6.44C6.34 6.83 6.12 7.33 6.12 7.88V16.12C6.12 16.67 6.34 17.17 6.73 17.56L10.56 21.39C10.95 21.78 11.45 22 12 22C12 22 12 22 12 22C12.55 22 13.05 21.78 13.44 21.39L17.27 17.56C17.66 17.17 17.88 16.67 17.88 16.12V7.88C17.88 7.33 17.66 6.83 17.27 6.44L13.44 2.61C13.05 2.22 12.55 2 12 2Z" stroke="#F6A51E" stroke-width="2" stroke-linecap="round" stroke-linejoin="round"/>
</svg>
