<svg width="200" height="200" viewBox="0 0 200 200" fill="none" xmlns="http://www.w3.org/2000/svg">
<circle cx="100" cy="100" r="100" fill="#D9D9D9"/>
<path d="M100 60C77.92 60 60 77.92 60 100C60 122.08 77.92 140 100 140C122.08 140 140 122.08 140 100C140 77.92 122.08 60 100 60ZM100 76C107.72 76 114 82.28 114 90C114 97.72 107.72 104 100 104C92.28 104 86 97.72 86 90C86 82.28 92.28 76 100 76ZM100 132C91.88 132 82.28 128.72 75.44 120.48C82.2 115.2 90.72 112 100 112C109.28 112 117.8 115.2 124.56 120.48C117.72 128.72 108.12 132 100 132Z" fill="white"/>
</svg>
